<svg xmlns="http://www.w3.org/2000/svg" version="1.1" xmlns:xlink="http://www.w3.org/1999/xlink" xmlns:svgjs="http://svgjs.dev/svgjs" width="2000" height="499" viewBox="0 0 2000 499"><g transform="matrix(1,0,0,1,-1.2112696095522324,-0.20806117911519095)"><svg viewBox="0 0 396 99" data-background-color="#ffffff" preserveAspectRatio="xMidYMid meet" height="499" width="2000" xmlns="http://www.w3.org/2000/svg" xmlns:xlink="http://www.w3.org/1999/xlink"><g id="tight-bounds" transform="matrix(1,0,0,1,0.24008861730862918,0.04128788716474219)"><svg viewBox="0 0 395.52 98.91730689855072" height="98.91730689855072" width="395.52"><g><svg viewBox="0 0 395.52 98.91730689855072" height="98.91730689855072" width="395.52"><g><svg viewBox="0 0 395.52 98.91730689855072" height="98.91730689855072" width="395.52"><g id="textblocktransform"><svg viewBox="0 0 395.52 98.91730689855072" height="98.91730689855072" width="395.52" id="textblock"><g><svg viewBox="0 0 395.52 98.91730689855072" height="98.91730689855072" width="395.52"><path d="M394.594 21.216C392.735 10.948 387.435 8.094 387.435 8.094 371.165-2.482 350.86-0.202 332.619 1.317 300.414 1.379 268.339 3.638 236.208 4.849 168.767 5.034 100.749 1.995 33.643 9.49 27.339 11.79-6.54 9.942 1.121 22.53 3.129 27.767 10.456 33.578 10.232 38.383 11.236 39.225 12.631 37.295 13.226 38.506 15.309 41.772 18.711 40.231 21.501 42.162 17.614 47.316 20.403 51.608 23.062 56.105 18.377 57.276 12.371 56.721 9.675 60.602 9.396 63.416 7.89 62.882 6.235 62.759 5.026 62.676 2.59 62.984 2.999 63.867 4.394 66.886-1.594 68.632 2.162 71.589-0.422 74.792 3.948 77.564 3.353 81.035 3.278 81.733 3.687 82.329 4.338 82.493 7.22 83.376 3.018 85.101 3.464 86.969 33.029 99.742 65.104 90.912 95.394 96.785 103.259 92.678 97.346 98.243 100.489 97.381 102.943 96.375 104.728 100.543 107.499 98.182 107.927 97.504 107.276 95.902 108.8 96.21 109.6 96.375 110.307 96.333 110.418 95.389 110.586 93.972 109.117 94.855 108.726 94.116 112.947 90.378 111.906 99.27 115.866 98.9 115.68 97.812 114.528 96.251 116.889 96.457 119.232 94.896 119.306 93.602 121.389 97.114 121.463 97.874 121.835 98.408 122.43 98.777 128.938 94.958 135.409 100.133 142.233 98.408 146.417 96.518 150.433 99.434 154.672 98.716 156.16 98.141 157.666 97.114 159.098 98.839 176.632 99.208 195.319 97.668 211.943 98.9 256.364 96.6 303.835 99.845 350.674 96.806 361.719 95.635 373.192 93.972 383.958 92.637 383.958 92.637 392.679 88.982 392.679 72.554S394.538 58.179 394.817 45.098C395.096 32.017 396.398 31.483 394.538 21.216Z" opacity="1" fill="#b32246" data-fill-palette-color="tertiary"></path><g transform="matrix(1,0,0,1,55.76832,26.230666666666668)"><svg width="283.98335999999995" viewBox="4.03000020980835 -36.25 224.58999633789062 36.7400016784668" height="46.455973565217384" data-palette-color="#ffffff"><path d="M9.3 0L4.03 0 6.76-35.77 15.63-35.77 23.29-12.92 24.66-7.59 25.15-7.59 26.54-12.92 34.23-35.77 43.33-35.77 46.09 0 39.84 0 38.18-26.73 38.04-32.3 37.55-32.3 36.08-26.98 27.37-0.73 21.85-0.73 13.06-26.93 11.55-32.3 11.06-32.3 10.94-26.78 9.3 0ZM80.37-35.77L68.02-15.63 68.02 0 61.94 0 61.94-15.53 50.05-35.77 56.98-35.77 63.28-23.75 65.43-18.95 65.92-18.95 68.16-23.73 74.58-35.77 80.37-35.77ZM115.18-19.78L115.18-19.78Q116.64-19.36 117.99-18.63 119.33-17.9 120.37-16.85 121.4-15.8 122.03-14.44 122.65-13.09 122.65-11.43L122.65-11.43Q122.65-9.45 121.68-7.42 120.72-5.4 118.84-3.75 116.96-2.1 114.18-1.05 111.39 0 107.76 0L107.76 0 97.6 0 97.6-35.77 108.76-35.77Q111.83-35.77 114.13-35.11 116.42-34.45 117.96-33.37 119.5-32.3 120.27-30.88 121.04-29.47 121.04-27.98L121.04-27.98Q121.04-26.71 120.55-25.55 120.06-24.39 119.26-23.35 118.45-22.31 117.39-21.41 116.33-20.51 115.18-19.78ZM103.65-16.5L103.65-4.3 108.34-4.3Q110.51-4.3 112.04-4.87 113.57-5.44 114.52-6.36 115.47-7.28 115.9-8.44 116.33-9.59 116.33-10.79L116.33-10.79Q116.33-12.28 115.74-13.35 115.15-14.43 114.08-15.12 113.01-15.82 111.52-16.16 110.03-16.5 108.22-16.5L108.22-16.5 103.65-16.5ZM103.65-20.68L111.61-20.68Q113.15-21.75 114.09-23.19 115.03-24.63 115.03-26.39L115.03-26.39Q115.03-28.74 113.19-30.1 111.35-31.47 107.95-31.47L107.95-31.47 103.65-31.47 103.65-20.68ZM150.06 0L130.48 0 130.48-35.77 136.54-35.77 136.54-4.3 150.87-4.3 150.06 0ZM173.52-3.81L173.52-3.81Q176.16-3.81 178.31-4.91 180.46-6.01 181.98-7.9 183.51-9.79 184.34-12.33 185.17-14.87 185.17-17.75L185.17-17.75Q185.17-20.8 184.25-23.4 183.34-26 181.73-27.91 180.11-29.81 177.92-30.88 175.72-31.96 173.16-31.96L173.16-31.96Q170.5-31.96 168.35-30.83 166.2-29.71 164.68-27.8 163.17-25.88 162.35-23.34 161.54-20.8 161.54-17.94L161.54-17.94Q161.54-14.89 162.44-12.3 163.34-9.72 164.94-7.84 166.54-5.96 168.74-4.88 170.93-3.81 173.52-3.81ZM172.69 0.49L172.69 0.49Q170.32 0.49 168.1-0.06 165.88-0.61 163.94-1.65 162-2.69 160.4-4.2 158.8-5.71 157.64-7.67 156.48-9.62 155.85-11.98 155.21-14.33 155.21-17.04L155.21-17.04Q155.21-19.85 155.9-22.36 156.58-24.88 157.81-27 159.05-29.13 160.78-30.85 162.51-32.57 164.6-33.76 166.69-34.96 169.08-35.61 171.47-36.25 174.06-36.25L174.06-36.25Q177.55-36.25 180.71-35.07 183.87-33.89 186.27-31.63 188.66-29.37 190.08-26.12 191.49-22.88 191.49-18.75L191.49-18.75Q191.49-15.97 190.82-13.45 190.15-10.94 188.93-8.8 187.71-6.67 186-4.94 184.29-3.22 182.2-2.01 180.11-0.81 177.71-0.16 175.3 0.49 172.69 0.49ZM228.62-17.09L228.62-1.88Q225.2-0.56 222.13-0.04 219.05 0.49 216.42 0.49L216.42 0.49Q212.12 0.49 208.74-0.74 205.36-1.98 202.99-4.24 200.62-6.49 199.37-9.69 198.13-12.89 198.13-16.82L198.13-16.82Q198.13-19.9 198.89-22.53 199.64-25.17 200.99-27.33 202.33-29.49 204.21-31.15 206.09-32.81 208.33-33.95 210.58-35.08 213.12-35.67 215.66-36.25 218.34-36.25L218.34-36.25Q219.22-36.25 220.3-36.18 221.37-36.11 222.58-35.95 223.79-35.79 225.08-35.53 226.38-35.28 227.69-34.89L227.69-34.89 226.74-30.18 226.25-29.93Q223.69-31.13 221.44-31.54 219.2-31.96 217.56-31.96L217.56-31.96Q214.58-31.96 212.17-30.9 209.75-29.83 208.02-27.97 206.28-26.1 205.34-23.55 204.4-21 204.4-17.99L204.4-17.99Q204.4-15.14 205.27-12.57 206.14-10.01 207.8-8.06 209.46-6.1 211.85-4.96 214.24-3.81 217.32-3.81L217.32-3.81Q218.61-3.81 220.16-4.03 221.71-4.25 223.23-4.74L223.23-4.74 223.23-17.09 228.62-17.09Z" opacity="1" transform="matrix(1,0,0,1,0,0)" fill="#ffffff" class="undefined-text-0" data-fill-palette-color="quaternary" id="text-0"></path></svg></g></svg></g></svg></g></svg></g><g></g></svg></g><defs></defs></svg><rect width="395.52" height="98.91730689855072" fill="none" stroke="none" visibility="hidden"></rect></g></svg></g></svg>